#!OML:ASF I:\Actors\actors\Patient Classification 1\Patient 1\Session 1\Subject1.ASF
:FULLY-SPECIFIED
:DEGREES
1096
root -0.269634 17.6177 7.5245 8.49622 3.0335 -8.1155
lowerback 5.53521 4.05022 6.20993
upperback -10.4043 6.47533 0.973163
thorax -13.9976 2.49561 -3.47279
lowerneck -8.85493 -14.6675 -8.81307
upperneck 7.82453 -20.1039 12.2379
head 5.93972 -9.43739 3.29783
rclavicle -5.06404e-014 -3.57812e-014
rhumerus 45.6013 -32.0581 -71.5388
rradius 51.0559
rwrist 50.7437
rhand -33.3587 -54.7634
rfingers 7.12502
rthumb -6.56054 -444.642
lclavicle -5.06404e-014 -3.57812e-014
lhumerus -31.4898 25.245 45.8159
lradius 113.381
lwrist 32.226
lhand -35.0456 -7.85862
lfingers 7.12502
lthumb -8.18878 21.9627
rfemur 0.0973586 26.0207 26.1106
rtibia -1.04519
rfoot -14.9287 -27.6073
rtoes 8.60215
lfemur 0.00659541 -33.9987 -10.6585
ltibia -1.07132
lfoot -9.01348 37.1612
ltoes -4.63679
1097
root -0.291474 17.6201 7.51975 8.33459 3.81102 -8.1794
lowerback 5.80349 3.91593 6.58221
upperback -10.3908 6.37353 1.04041
thorax -14.1376 2.404 -3.6103
lowerneck -8.76416 -14.7877 -8.86558
upperneck 7.3373 -20.1885 12.1149
head 5.77154 -9.50549 3.27929
rclavicle -6.75868e-014 -1.59028e-014
rhumerus 53.7739 -35.6983 -78.7459
rradius 47.2682
rwrist 50.3344
rhand -26.8676 -54.178
rfingers 7.12502
rthumb -0.292238 -444.158
lclavicle -6.75868e-014 -1.59028e-014
lhumerus -30.8352 25.1246 46.422
lradius 113.318
lwrist 32.1989
lhand -34.9913 -7.88744
lfingers 7.12502
lthumb -8.13639 21.9359
rfemur 0.345856 25.9954 26.4388
rtibia -1.10564
rfoot -15.2127 -28.187
rtoes 9.2647
lfemur -0.167963 -34.0892 -10.3552
ltibia -1.03072
lfoot -8.74739 36.5592
ltoes -5.31763
1098
root -0.313394 17.6238 7.51379 8.27136 4.37565 -8.17858
lowerback 5.99276 3.79799 6.90776
upperback -10.4218 6.28391 1.09383
thorax -14.2844 2.32118 -3.73364
lowerneck -8.69254 -14.8291 -8.99247
upperneck 7.04896 -20.1908 12.0621
head 5.67622 -9.52425 3.29433
rclavicle 8.94531e-015 -4.17448e-015
rhumerus 61.9666 -37.3325 -86.2252
rradius 43.9938
rwrist 49.809
rhand -33.9116 -53.7846
rfingers 7.12502
rthumb -7.0942 -443.646
lclavicle 8.94531e-015 -4.17448e-015
lhumerus -30.3856 25.0329 46.9027
lradius 113.31
lwrist 32.4126
lhand -34.9902 -7.79801
lfingers 7.12502
lthumb -8.13529 22.0254
rfemur 0.412512 25.8583 26.5906
rtibia -1.11091
rfoot -15.2055 -28.5289
rtoes 8.97207
lfemur -0.394266 -34.1128 -10.1158
ltibia -0.992032
lfoot -8.35453 36.0651
ltoes -6.22201
1099
root -0.334823 17.6286 7.50664 8.27776 4.71142 -8.21713
lowerback 6.07404 3.7181 7.38767
upperback -10.4335 6.25261 1.1305
thorax -14.3187 2.25425 -3.95757
lowerneck -8.78952 -14.8525 -9.1978
upperneck 7.01325 -20.1791 12.0173
head 5.69485 -9.52248 3.30309
rclavicle 1.3418e-015 -2.06736e-014
rhumerus 69.1603 -37.2803 -92.9236
rradius 41.2394
rwrist 50.3597
rhand -34.4458 -51.8759
rfingers 7.12502
rthumb -7.6099 -441.719
lclavicle 1.3418e-015 -2.06736e-014
lhumerus -29.9533 24.9712 47.4016
lradius 113.256
lwrist 32.6043
lhand -35.1909 -7.56118
lfingers 7.12502
lthumb -8.32896 22.2546
rfemur 0.355006 25.6807 26.7112
rtibia -1.06023
rfoot -15.2277 -28.6071
rtoes 9.06565
lfemur -0.637856 -34.0488 -9.82813
ltibia -0.950732
lfoot -8.08305 35.7148
ltoes -6.91689
1100
root -0.357417 17.6327 7.49996 8.35699 4.79225 -8.23776
lowerback 6.03654 3.68127 7.8892
upperback -10.4399 6.26899 1.16313
thorax -14.2639 2.21268 -4.1941
lowerneck -8.91039 -14.8088 -9.13674
upperneck 6.93186 -20.0695 11.7458
head 5.64092 -9.48044 3.22596
rclavicle -1.13804e-014 3.97569e-015
rhumerus 74.0721 -35.9192 -97.2071
rradius 39.1813
rwrist 52.3803
rhand -33.7422 -51.2545
rfingers 7.12502
rthumb -6.93072 -441.121
lclavicle -1.13804e-014 3.97569e-015
lhumerus -29.5637 24.8545 47.9276
lradius 113.112
lwrist 32.6795
lhand -35.4592 -7.54216
lfingers 7.12502
lthumb -8.58789 22.2632
rfemur 0.216595 25.6437 26.7611
rtibia -1.04753
rfoot -15.368 -28.5762
rtoes 10.0315
lfemur -0.850883 -34.155 -9.60254
ltibia -0.878258
lfoot -8.18166 35.7635
ltoes -6.77808
1101
root -0.380072 17.6344 7.4943 8.47744 4.55302 -8.20843
lowerback 5.97826 3.71395 8.32993
upperback -10.4842 6.3717 1.19417
thorax -14.2363 2.21633 -4.41204
lowerneck -9.19169 -14.7287 -9.04575
upperneck 7.32417 -19.9291 11.262
head 5.73204 -9.41558 3.06091
rclavicle -3.39673e-014 -6.16232e-015
rhumerus 76.307 -33.8431 -98.5065
rradius 37.6063
rwrist 54.7166
rhand -32.9917 -50.4283
rfingers 7.12502
rthumb -6.20617 -440.317
lclavicle -3.39673e-014 -6.16232e-015
lhumerus -29.3045 24.5721 48.3604
lradius 112.93
lwrist 32.7182
lhand -35.5937 -7.54238
lfingers 7.12502
lthumb -8.71778 22.2576
rfemur 0.0327273 25.7051 26.7073
rtibia -1.07012
rfoot -15.2208 -28.416
rtoes 10.1019
lfemur -0.919888 -34.3301 -9.52917
ltibia -0.861937
lfoot -8.4112 36.1556
ltoes -6.27173
1102
root -0.400328 17.6344 7.48673 8.5801 3.94876 -8.10479
lowerback 5.97142 3.79935 8.72925
upperback -10.4895 6.54149 1.224
thorax -14.1869 2.25759 -4.62097
lowerneck -9.4283 -14.5899 -8.83371
upperneck 7.60465 -19.7031 10.7075
head 5.75439 -9.31687 2.87808
rclavicle -2.94947e-014 -4.14466e-014
rhumerus 76.3536 -31.1599 -97.1953
rradius 36.51
rwrist 57.1286
rhand -32.2522 -50.5328
rfingers 7.12502
rthumb -5.49225 -440.442
lclavicle -2.94947e-014 -4.14466e-014
lhumerus -29.1248 24.426 48.7846
lradius 112.761
lwrist 32.6627
lhand -35.6348 -7.40512
lfingers 7.12502
lthumb -8.75741 22.3932
rfemur -0.178023 25.7511 26.5284
rtibia -1.0289
rfoot -14.8263 -27.9554
rtoes 9.40492
lfemur -0.771435 -34.3767 -9.68296
ltibia -0.921224
lfoot -8.66765 36.7306
ltoes -5.68922
1103
root -0.418112 17.6337 7.4767 8.65776 2.97393 -7.96256
lowerback 6.02203 3.90691 9.12909
upperback -10.4515 6.74275 1.2529
thorax -14.1144 2.31531 -4.83823
lowerneck -9.77228 -14.4122 -8.53709
upperneck 8.00143 -19.427 10.064
head 5.81075 -9.19132 2.65321
rclavicle 1.48359e-014 -2.0363e-014
rhumerus 74.917 -27.7645 -94.0669
rradius 35.8406
rwrist 58.1985
rhand -32.2627 -50.5388
rfingers 7.12502
rthumb -5.5024 -440.447
lclavicle 1.48359e-014 -2.0363e-014
lhumerus -29.0438 24.4736 49.1119
lradius 112.59
lwrist 32.5287
lhand -35.6046 -7.30704
lfingers 7.12502
lthumb -8.72827 22.4925
rfemur -0.406821 25.88 26.2735
rtibia -0.969914
rfoot -14.3088 -27.2491
rtoes 8.69403
lfemur -0.382108 -34.3989 -10.0417
ltibia -1.05873
lfoot -9.09858 37.5934
ltoes -4.74412
1104
root -0.434705 17.6311 7.46742 8.75305 1.67435 -7.83797
lowerback 6.10683 4.03035 9.54077
upperback -10.4333 6.97458 1.29824
thorax -14.0826 2.38401 -5.05159
lowerneck -10.107 -14.1714 -8.18126
upperneck 8.47786 -19.0818 9.42084
head 5.88263 -9.03101 2.42673
rclavicle 3.59428e-014 3.21534e-014
rhumerus 72.3399 -23.4682 -89.2412
rradius 35.673
rwrist 57.7631
rhand -31.6737 -50.7603
rfingers 7.12502
rthumb -4.93371 -440.683
lclavicle 3.59428e-014 3.21534e-014
lhumerus -29.1117 24.5633 49.2327
lradius 112.385
lwrist 32.478
lhand -35.4844 -7.30488
lfingers 7.12502
lthumb -8.61226 22.4995
rfemur -0.68452 26.0508 25.9901
rtibia -0.932213
rfoot -13.6207 -26.2893
rtoes 7.81407
lfemur 0.218137 -34.5906 -10.5347
ltibia -1.28328
lfoot -9.87326 38.9267
ltoes -3.28851
1105
root -0.449795 17.6264 7.45985 8.86473 0.130977 -7.63491
lowerback 6.4147 4.15456 9.78655
upperback -10.5537 7.23732 1.39731
thorax -14.3795 2.46153 -5.15018
lowerneck -10.1395 -13.8669 -8.33356
upperneck 8.99711 -18.6397 9.04426
head 5.98944 -8.83392 2.3737
rclavicle 3.97569e-015 9.93923e-016
rhumerus 69.6531 -18.4523 -83.9529
rradius 35.6889
rwrist 56.8657
rhand -31.2189 -50.577
rfingers 7.12502
rthumb -4.49449 -440.509
lclavicle 3.97569e-015 9.93923e-016
lhumerus -29.6365 24.5481 49.1267
lradius 112.291
lwrist 32.6802
lhand -35.4295 -7.38445
lfingers 7.12502
lthumb -8.55929 22.4221
rfemur -1.04493 26.0196 25.5521
rtibia -0.826494
rfoot -12.9259 -24.8998
rtoes 6.75108
lfemur 0.948821 -34.8676 -11.258
ltibia -1.52303
lfoot -10.9634 40.5718
ltoes -1.54644
